# xmcd
#
# Track frame offsets: 
#        150
#        17127
#        37644
#        61029
#
# Disc length: 1034 seconds
#
# Revision: 0
# Processed by: cddbd v1.5.2PL0 Copyright (c) Steve Scherf et al.
# Submitted via: ExactAudioCopy v0.95a5
#
DISCID=20040804
DTITLE=HIRAI KEN - fake star
DYEAR=2007
DGENRE=JPop
TTITLE0=fake star
TTITLE1=fake star - Ken's swingin' jazz - 
TTITLE2=POP STAR X fake star - MASH UP version - 
TTITLE3=fake star - instrumental - 
EXTD=
EXTT0=
EXTT1=
EXTT2=
EXTT3=
PLAYORDER=
